<svg width="317" height="317" viewBox="0 0 317 317" fill="none" xmlns="http://www.w3.org/2000/svg">
<path opacity="0.4" d="M158.513 0L181.205 31.6416L213.542 9.54835L223.909 46.9291L261.945 37.076L258.696 75.7011L297.892 79.2563L281.414 114.428L317 130.985L289.305 158.487L317 186.015L281.414 202.547L297.892 237.744L258.696 241.299L261.945 279.924L223.909 270.045L213.542 307.426L181.205 285.358L158.513 317L135.795 285.358L103.458 307.426L93.0912 270.045L55.0553 279.924L58.3045 241.299L19.1082 237.744L35.5861 202.547L0 186.015L27.6953 158.487L0 130.985L35.5861 114.428L19.1082 79.2563L58.3045 75.7011L55.0553 37.076L93.0912 46.9291L103.458 9.54835L135.795 31.6416L158.513 0Z" fill="#FF5C00" fill-opacity="0.27"/>
</svg>
